#N canvas 39 68 1407 930 10;
#X obj 992 90 *;
#X obj 992 110 *;
#X obj 992 130 *;
#X obj 992 150 *;
#X msg 992 49 466.164;
#X obj 992 170 *;
#X obj 992 190 *;
#X obj 992 210 *;
#X obj 992 230 *;
#X obj 740 810 dac~;
#X obj 992 250 *;
#X obj 992 270 *;
#X obj 992 289 *;
#X obj 614 55 sig~ 1;
#X obj 729 87 -~;
#X msg 1053 48 1.12247;
#X obj 784 407 bp~ 1 620;
#X obj 785 429 bp~ 1 640;
#X obj 784 449 bp~ 1 680;
#X obj 785 469 bp~ 1 720;
#X obj 785 490 bp~ 1 760;
#X obj 784 511 bp~ 1 800;
#X obj 704 511 bp~ 1 840;
#X obj 703 488 bp~ 1 880;
#X obj 703 463 bp~ 1 910;
#X obj 703 440 bp~ 1 930;
#X obj 702 417 bp~ 1 1100;
#X obj 702 392 bp~ 1 1200;
#X obj 739 580 rev3~ 100 95 5000 1;
#X obj 742 39 vline~;
#X obj 660 211 vd~ x;
#X obj 702 210 vd~ x;
#X obj 748 210 vd~ x;
#X obj 74 277 delwrite~ x 120;
#X obj 124 241 r~ fb;
#X obj 675 322 s~ fb;
#X obj 676 297 *~ 0.7;
#X obj 1023 -28 loadbang;
#X obj 739 554 *~ 12;
#X obj 731 321 *~;
#X obj 729 108 *~ 12;
#X obj 1023 19 t b b;
#X obj 90 17 wrap~;
#X obj 74 -10 -~ 0.5;
#X obj 90 38 -~ 0.5;
#X obj 74 60 -~;
#X obj 106 177 wrap~;
#X obj 90 149 -~ 0.5;
#X obj 106 198 -~ 0.5;
#X obj 90 222 -~;
#X obj 74 248 *~;
#X obj 90 127 phasor~;
#X obj 74 -33 phasor~ 467.1;
#X obj 90 107 +~ 277;
#X obj 729 130 +~ 1;
#X obj 810 95 *~ -1;
#X obj 810 135 min~;
#X obj 810 115 +~ 1;
#X obj 729 153 +~ 12;
#X obj 748 185 +~ 12;
#X obj 256 44 bng 25 250 50 0 beam_me_up empty transport 0 -6 0 8 -262144
-1 -1;
#X obj 745 -3 r beam_me_up;
#X obj 783 554 *~ 0.1;
#X obj 874 612 *~ 0.5;
#N canvas 108 241 484 717 activate 0;
#X obj 100 287 +~;
#X obj 84 340 *~;
#X obj 5 236 lop~ 30;
#X obj 100 314 phasor~;
#X obj 157 373 clip~ -1 1;
#X obj 144 161 noise~;
#X obj 144 221 +~;
#X obj 59 189 -~;
#X obj 157 349 *~ 3;
#X obj 44 29 t b b;
#X obj 44 116 vline~;
#X obj 161 670 outlet~;
#X obj 44 7 inlet;
#X obj 59 239 +~ 500;
#X obj 61 166 sig~ 20;
#X obj 197 162 osc~ 10;
#X obj 197 192 *~ 20;
#X obj 73 494 rev3~ 100 80 3000 90;
#X obj 144 192 *~ 0.1;
#X obj 84 410 bp~ 775 13;
#X obj 157 410 bp~ 1550 13;
#X obj 25 658 delwrite~ beep 500;
#X obj 237 409 bp~ 2000 13;
#X msg 44 72 1 30 0 \, 0 400 10;
#X obj 61 212 *~ 40;
#X obj 233 507 delread~ beep 160;
#X floatatom 234 463 5 0 0 0 - - -;
#X obj 165 579 +~, f 5;
#X obj 233 528 *~ 0.5;
#X obj 73 528 *~ 2;
#X msg 182 72 1 30 \, 0 0 200 \, 1 200 300 \, 0 0 400;
#X obj 157 450 *~ 0.3;
#X connect 0 0 3 0;
#X connect 1 0 8 0;
#X connect 2 0 1 0;
#X connect 3 0 1 1;
#X connect 4 0 20 0;
#X connect 4 0 19 0;
#X connect 4 0 22 0;
#X connect 5 0 18 0;
#X connect 6 0 0 1;
#X connect 7 0 24 0;
#X connect 8 0 4 0;
#X connect 9 0 23 0;
#X connect 10 0 7 1;
#X connect 10 0 2 0;
#X connect 12 0 9 0;
#X connect 13 0 0 0;
#X connect 14 0 7 0;
#X connect 15 0 16 0;
#X connect 16 0 6 1;
#X connect 17 0 29 0;
#X connect 18 0 6 0;
#X connect 19 0 31 0;
#X connect 20 0 31 0;
#X connect 22 0 31 0;
#X connect 23 0 10 0;
#X connect 24 0 13 0;
#X connect 25 0 28 0;
#X connect 26 0 25 0;
#X connect 27 0 11 0;
#X connect 27 0 21 0;
#X connect 28 0 27 1;
#X connect 29 0 27 0;
#X connect 30 0 10 0;
#X connect 31 0 17 0;
#X restore 873 508 pd activate;
#X obj 184 551 noise~;
#N canvas 276 331 603 529 windspeed 0;
#X obj 13 41 +~ 1;
#X obj 12 151 +~;
#X obj 13 64 *~ 0.25;
#X obj 28 129 +~;
#X obj 13 173 clip~ 0 1;
#N canvas 0 77 282 347 squall 0;
#X obj 78 41 noise~;
#X obj 77 108 hip~ 0;
#X obj 78 64 lop~ 3;
#X obj 78 85 lop~ 3;
#X obj 17 112 *~;
#X obj 38 160 *~;
#X obj 16 42 max~ 0.4;
#X obj 16 64 -~ 0.4;
#X obj 78 129 *~ 20;
#X obj 16 14 inlet~;
#X obj 40 184 outlet~;
#X obj 16 87 *~ 4;
#X connect 0 0 2 0;
#X connect 1 0 8 0;
#X connect 2 0 3 0;
#X connect 3 0 1 0;
#X connect 4 0 5 0;
#X connect 5 0 10 0;
#X connect 6 0 7 0;
#X connect 7 0 11 0;
#X connect 8 0 5 1;
#X connect 9 0 6 0;
#X connect 11 0 4 0;
#X connect 11 0 4 1;
#X restore 83 98 pd squall;
#N canvas 0 77 278 274 gust 0;
#X obj 9 15 noise~;
#X obj 8 82 hip~ 0;
#X obj 8 157 *~;
#X obj 76 72 *~;
#X obj 75 49 +~ 0.5;
#X obj 76 96 -~ 0.125;
#X obj 9 59 lop~ 0.5;
#X obj 9 38 lop~ 0.5;
#X obj 75 9 inlet~;
#X obj 8 182 outlet~;
#X obj 9 103 *~ 20;
#X connect 0 0 7 0;
#X connect 1 0 10 0;
#X connect 2 0 9 0;
#X connect 3 0 5 0;
#X connect 4 0 3 0;
#X connect 4 0 3 1;
#X connect 5 0 2 1;
#X connect 6 0 1 0;
#X connect 7 0 6 0;
#X connect 8 0 4 0;
#X connect 10 0 2 0;
#X restore 27 98 pd gust;
#X obj 13 199 outlet~;
#X obj 13 19 osc~ 0.1;
#X connect 0 0 2 0;
#X connect 1 0 4 0;
#X connect 2 0 5 0;
#X connect 2 0 1 0;
#X connect 2 0 6 0;
#X connect 3 0 1 1;
#X connect 4 0 7 0;
#X connect 5 0 3 1;
#X connect 6 0 3 0;
#X connect 8 0 0 0;
#X restore 46 388 pd windspeed;
#X obj 345 425 catch~ l;
#X obj 421 422 catch~ r;
#X obj 181 589 s~ white;
#X obj 190 390 vd~ a 0;
#X obj 247 390 r~ white;
#X obj 190 498 throw~ l;
#X obj 255 498 throw~ r;
#X obj 190 435 *~;
#X obj 190 412 +~ 0.2;
#X obj 190 456 *~ 0.3;
#X obj 513 455 line~;
#X obj 190 477 fcpan 0.3;
#X msg 513 428 0 \, 1 12000 2;
#X obj 90 87 *~ 6500;
#X obj 731 345 hip~ 100;
#X msg 745 19 1 3000 \, 0 1500 3500;
#X obj 43 409 delwrite~ a 30000;
#X obj 810 155 *~ 2;
#X msg 656 -6 0 1500;
#X msg 531 -1 1 2000;
#N canvas 267 254 939 693 tone_depth 0;
#X obj 103 267 +~;
#X obj 103 199 +~;
#X obj 228 194 +~;
#X obj 363 191 +~;
#X obj 103 236 +~;
#X obj 103 302 *~ 0.01;
#X obj 102 531 outlet~;
#X obj 195 328 inlet~;
#X obj 103 358 +~;
#X obj 102 59 osc~ 220;
#X obj 227 59 osc~ 250;
#X obj 245 90 osc~ 250.33;
#X obj 363 59 osc~ 333;
#X obj 380 90 osc~ 333.33;
#X obj 180 266 inlet;
#X obj 121 90 osc~ 220.2;
#X connect 0 0 5 0;
#X connect 1 0 4 0;
#X connect 2 0 4 1;
#X connect 3 0 0 1;
#X connect 4 0 0 0;
#X connect 5 0 8 0;
#X connect 7 0 8 1;
#X connect 8 0 6 0;
#X connect 9 0 1 0;
#X connect 10 0 2 0;
#X connect 11 0 2 1;
#X connect 12 0 3 0;
#X connect 13 0 3 1;
#X connect 14 0 5 1;
#X connect 15 0 1 1;
#X restore 368 649 pd tone_depth;
#X obj 309 579 vsl 30 50 0.03 0.1 0 0 empty empty empty 0 -9 0 10 -260097
-1 -1 0 1;
#X obj 244 419 bp~ 200 1;
#X obj 702 240 *~ 0.1;
#X obj 418 488 *~ 0.1;
#X obj 344 474 *~ 0.1;
#X obj 529 -31 r breath_in;
#X obj 655 -32 r breath_out;
#X obj 874 487 r initiate;
#X msg 945 1 \; pd dsp 1;
#X floatatom 307 648 5 0 0 0 - - -;
#X obj 313 512 loadbang;
#X msg 312 542 0.03;
#X connect 0 0 1 0;
#X connect 0 0 26 1;
#X connect 1 0 2 0;
#X connect 1 0 25 1;
#X connect 2 0 3 0;
#X connect 2 0 24 1;
#X connect 3 0 5 0;
#X connect 3 0 23 1;
#X connect 4 0 0 0;
#X connect 4 0 27 1;
#X connect 5 0 6 0;
#X connect 5 0 22 1;
#X connect 6 0 7 0;
#X connect 6 0 21 1;
#X connect 7 0 8 0;
#X connect 7 0 20 1;
#X connect 8 0 10 0;
#X connect 8 0 19 1;
#X connect 10 0 11 0;
#X connect 10 0 18 1;
#X connect 11 0 12 0;
#X connect 11 0 17 1;
#X connect 12 0 16 1;
#X connect 13 0 14 0;
#X connect 14 0 40 0;
#X connect 15 0 0 1;
#X connect 15 0 1 1;
#X connect 15 0 2 1;
#X connect 15 0 3 1;
#X connect 15 0 5 1;
#X connect 15 0 6 1;
#X connect 15 0 7 1;
#X connect 15 0 8 1;
#X connect 15 0 10 1;
#X connect 15 0 11 1;
#X connect 15 0 12 1;
#X connect 16 0 38 0;
#X connect 17 0 38 0;
#X connect 18 0 38 0;
#X connect 19 0 38 0;
#X connect 20 0 38 0;
#X connect 21 0 38 0;
#X connect 22 0 38 0;
#X connect 23 0 38 0;
#X connect 24 0 38 0;
#X connect 25 0 38 0;
#X connect 26 0 38 0;
#X connect 27 0 38 0;
#X connect 28 0 9 0;
#X connect 28 1 9 1;
#X connect 29 0 14 1;
#X connect 29 0 55 0;
#X connect 29 0 56 1;
#X connect 30 0 90 0;
#X connect 31 0 90 0;
#X connect 32 0 90 0;
#X connect 34 0 33 0;
#X connect 36 0 35 0;
#X connect 37 0 41 0;
#X connect 37 0 96 0;
#X connect 38 0 28 0;
#X connect 39 0 81 0;
#X connect 40 0 54 0;
#X connect 41 0 4 0;
#X connect 41 1 15 0;
#X connect 42 0 44 0;
#X connect 43 0 42 0;
#X connect 43 0 45 0;
#X connect 44 0 45 1;
#X connect 45 0 50 0;
#X connect 45 0 80 0;
#X connect 46 0 48 0;
#X connect 47 0 46 0;
#X connect 47 0 49 0;
#X connect 48 0 49 1;
#X connect 49 0 50 1;
#X connect 50 0 33 0;
#X connect 51 0 47 0;
#X connect 52 0 43 0;
#X connect 53 0 51 0;
#X connect 54 0 30 0;
#X connect 54 0 58 0;
#X connect 55 0 57 0;
#X connect 56 0 84 0;
#X connect 57 0 56 0;
#X connect 58 0 31 0;
#X connect 58 0 59 0;
#X connect 59 0 32 0;
#X connect 61 0 82 0;
#X connect 62 0 28 0;
#X connect 63 0 9 1;
#X connect 63 0 9 0;
#X connect 64 0 62 0;
#X connect 64 0 63 0;
#X connect 65 0 69 0;
#X connect 66 0 83 0;
#X connect 67 0 92 0;
#X connect 68 0 91 0;
#X connect 70 0 75 0;
#X connect 71 0 89 0;
#X connect 74 0 76 0;
#X connect 75 0 74 0;
#X connect 76 0 78 0;
#X connect 77 0 91 1;
#X connect 77 0 92 1;
#X connect 78 0 72 0;
#X connect 78 1 73 0;
#X connect 79 0 77 0;
#X connect 80 0 53 0;
#X connect 81 0 16 0;
#X connect 81 0 17 0;
#X connect 81 0 18 0;
#X connect 81 0 19 0;
#X connect 81 0 20 0;
#X connect 81 0 21 0;
#X connect 81 0 22 0;
#X connect 81 0 23 0;
#X connect 81 0 24 0;
#X connect 81 0 25 0;
#X connect 81 0 26 0;
#X connect 81 0 27 0;
#X connect 82 0 29 0;
#X connect 84 0 39 1;
#X connect 85 0 29 0;
#X connect 86 0 29 0;
#X connect 87 0 9 0;
#X connect 87 0 9 1;
#X connect 88 0 87 0;
#X connect 88 0 97 0;
#X connect 89 0 74 1;
#X connect 90 0 36 0;
#X connect 90 0 39 0;
#X connect 91 0 87 1;
#X connect 92 0 87 1;
#X connect 93 0 86 0;
#X connect 94 0 85 0;
#X connect 95 0 64 0;
#X connect 98 0 99 0;
#X connect 99 0 88 0;
